<mxfile>
    <diagram id="Jk3A5JiycQoHWtGk7GbD" name="Page-1">
        <mxGraphModel dx="752" dy="402" grid="1" gridSize="10" guides="1" tooltips="1" connect="1" arrows="1" fold="1" page="1" pageScale="1" pageWidth="827" pageHeight="1169" math="0" shadow="0">
            <root>
                <mxCell id="0"/>
                <mxCell id="1" parent="0"/>
                <mxCell id="lR3nvJWewIrYLPM3xM6J-1" value="" style="rounded=0;whiteSpace=wrap;html=1;" parent="1" vertex="1">
                    <mxGeometry x="40" y="40" width="860" height="530" as="geometry"/>
                </mxCell>
                <mxCell id="lR3nvJWewIrYLPM3xM6J-2" value="" style="rounded=0;whiteSpace=wrap;html=1;fillColor=#CCCCCC;" parent="1" vertex="1">
                    <mxGeometry x="40" y="510" width="860" height="60" as="geometry"/>
                </mxCell>
                <mxCell id="lR3nvJWewIrYLPM3xM6J-3" value="" style="rounded=0;whiteSpace=wrap;html=1;fillColor=#CCCCCC;" parent="1" vertex="1">
                    <mxGeometry x="40" y="310" width="170" height="200" as="geometry"/>
                </mxCell>
                <mxCell id="lR3nvJWewIrYLPM3xM6J-4" value="" style="rounded=0;whiteSpace=wrap;html=1;fillColor=#CCCCCC;" parent="1" vertex="1">
                    <mxGeometry x="40" y="40" width="170" height="270" as="geometry"/>
                </mxCell>
                <mxCell id="lR3nvJWewIrYLPM3xM6J-5" value="" style="rounded=0;whiteSpace=wrap;html=1;fillColor=#CCCCCC;" parent="1" vertex="1">
                    <mxGeometry x="730" y="40" width="170" height="470" as="geometry"/>
                </mxCell>
                <mxCell id="lR3nvJWewIrYLPM3xM6J-6" value="" style="rounded=0;whiteSpace=wrap;html=1;fillColor=#CCCCCC;" parent="1" vertex="1">
                    <mxGeometry x="210" y="190" width="520" height="320" as="geometry"/>
                </mxCell>
                <mxCell id="lR3nvJWewIrYLPM3xM6J-7" value="" style="rounded=0;whiteSpace=wrap;html=1;fillColor=#CCCCCC;" parent="1" vertex="1">
                    <mxGeometry x="210" y="40" width="520" height="150" as="geometry"/>
                </mxCell>
                <mxCell id="lR3nvJWewIrYLPM3xM6J-8" value="" style="rounded=0;whiteSpace=wrap;html=1;fillColor=#808080;" parent="1" vertex="1">
                    <mxGeometry x="50" y="320" width="150" height="40" as="geometry"/>
                </mxCell>
                <mxCell id="lR3nvJWewIrYLPM3xM6J-10" value="" style="rounded=0;whiteSpace=wrap;html=1;fillColor=#808080;" parent="1" vertex="1">
                    <mxGeometry x="50" y="370" width="150" height="130" as="geometry"/>
                </mxCell>
                <mxCell id="lR3nvJWewIrYLPM3xM6J-11" value="" style="rounded=0;whiteSpace=wrap;html=1;fillColor=#808080;" parent="1" vertex="1">
                    <mxGeometry x="740" y="230" width="150" height="40" as="geometry"/>
                </mxCell>
                <mxCell id="lR3nvJWewIrYLPM3xM6J-12" value="" style="rounded=1;whiteSpace=wrap;html=1;fillColor=#808080;" parent="1" vertex="1">
                    <mxGeometry x="740" y="280" width="150" height="60" as="geometry"/>
                </mxCell>
                <mxCell id="lR3nvJWewIrYLPM3xM6J-13" value="" style="rounded=0;whiteSpace=wrap;html=1;fillColor=#808080;" parent="1" vertex="1">
                    <mxGeometry x="230" y="225" width="150" height="170" as="geometry"/>
                </mxCell>
                <mxCell id="lR3nvJWewIrYLPM3xM6J-14" value="" style="rounded=0;whiteSpace=wrap;html=1;fillColor=#808080;" parent="1" vertex="1">
                    <mxGeometry x="560" y="225" width="150" height="170" as="geometry"/>
                </mxCell>
                <mxCell id="lR3nvJWewIrYLPM3xM6J-15" value="" style="rounded=0;whiteSpace=wrap;html=1;fillColor=#808080;" parent="1" vertex="1">
                    <mxGeometry x="395" y="225" width="150" height="170" as="geometry"/>
                </mxCell>
                <mxCell id="lR3nvJWewIrYLPM3xM6J-16" value="" style="rounded=0;whiteSpace=wrap;html=1;fillColor=#808080;" parent="1" vertex="1">
                    <mxGeometry x="230" y="440" width="150" height="70" as="geometry"/>
                </mxCell>
                <mxCell id="lR3nvJWewIrYLPM3xM6J-18" value="" style="rounded=0;whiteSpace=wrap;html=1;fillColor=#808080;" parent="1" vertex="1">
                    <mxGeometry x="395" y="440" width="150" height="70" as="geometry"/>
                </mxCell>
                <mxCell id="lR3nvJWewIrYLPM3xM6J-19" value="" style="rounded=0;whiteSpace=wrap;html=1;fillColor=#808080;" parent="1" vertex="1">
                    <mxGeometry x="560" y="440" width="150" height="70" as="geometry"/>
                </mxCell>
                <mxCell id="lR3nvJWewIrYLPM3xM6J-20" value="" style="rounded=0;whiteSpace=wrap;html=1;fillColor=#808080;" parent="1" vertex="1">
                    <mxGeometry x="260" y="70" width="420" height="110" as="geometry"/>
                </mxCell>
                <mxCell id="lR3nvJWewIrYLPM3xM6J-22" value="" style="rounded=0;whiteSpace=wrap;html=1;fillColor=#808080;" parent="1" vertex="1">
                    <mxGeometry x="210" y="40" width="520" height="20" as="geometry"/>
                </mxCell>
                <mxCell id="lR3nvJWewIrYLPM3xM6J-24" value="" style="rounded=1;whiteSpace=wrap;html=1;fillColor=#808080;" parent="1" vertex="1">
                    <mxGeometry x="690" y="90" width="30" height="20" as="geometry"/>
                </mxCell>
                <mxCell id="lR3nvJWewIrYLPM3xM6J-25" value="" style="rounded=0;whiteSpace=wrap;html=1;fillColor=#808080;" parent="1" vertex="1">
                    <mxGeometry x="50" y="50" width="150" height="70" as="geometry"/>
                </mxCell>
                <mxCell id="lR3nvJWewIrYLPM3xM6J-26" value="" style="rounded=0;whiteSpace=wrap;html=1;fillColor=#808080;" parent="1" vertex="1">
                    <mxGeometry x="50" y="130" width="150" height="170" as="geometry"/>
                </mxCell>
                <mxCell id="lR3nvJWewIrYLPM3xM6J-27" value="" style="rounded=0;whiteSpace=wrap;html=1;fillColor=#808080;" parent="1" vertex="1">
                    <mxGeometry x="50" y="520" width="150" height="45" as="geometry"/>
                </mxCell>
                <mxCell id="lR3nvJWewIrYLPM3xM6J-28" value="" style="rounded=0;whiteSpace=wrap;html=1;fillColor=#808080;" parent="1" vertex="1">
                    <mxGeometry x="300" y="517.5" width="360" height="45" as="geometry"/>
                </mxCell>
                <mxCell id="lR3nvJWewIrYLPM3xM6J-29" value="" style="rounded=0;whiteSpace=wrap;html=1;fillColor=#808080;" parent="1" vertex="1">
                    <mxGeometry x="710" y="520" width="180" height="45" as="geometry"/>
                </mxCell>
            </root>
        </mxGraphModel>
    </diagram>
</mxfile>